# AST/ASF file generated using VICON BodyLanguage
# -----------------------------------------------
:version 1.10
:name VICON
:units
  mass 1.0
  length 0.45
  angle deg
:documentation
   .ast/.asf automatically generated from VICON data using
   VICON BodyBuilder and BodyLanguage model FoxedUp or BRILLIANT.MOD
:root
   order TX TY TZ RX RY RZ
   axis XYZ
   position 0 0 0  
   orientation 0 0 0 
:bonedata
  begin
     id 1 
     name lhipjoint
     direction 0.588788 -0.725889 0.355548 
     length 2.37778 
     axis 0 0 0  XYZ
  end
  begin
     id 2 
     name lfemur
     direction 0.34202 -0.939693 0  
     length 6.86393  
     axis 0 0 20  XYZ
    dof rx ry rz
    limits (-160.0 20.0)
           (-70.0 70.0)
           (-60.0 70.0)
  end
  begin
     id 3 
     name ltibia
     direction 0.34202 -0.939693 0   
     length 7.32851   
     axis 0 0 20   XYZ
    dof rx
    limits (-10.0 170.0)
  end
  begin
     id 4 
     name lfoot
     direction 0.0626533 -0.172138 0.983078   
     length 1.98929   
     axis -90 7.62852e-016 20   XYZ
    dof rx rz
    limits (-45.0 90.0)
           (-70.0 20.0)
  end
  begin
     id 5 
     name ltoes
     direction 1.53647e-011 -4.21734e-011 1   
     length 1.00479   
     axis -90 7.62852e-016 20   XYZ
    dof rx
    limits (-90.0 20.0)
  end
  begin
     id 6 
     name rhipjoint
     direction -0.59141 -0.724168 0.354705   
     length 2.38343  
     axis 0 0 0  XYZ 
  end
  begin
     id 7 
     name rfemur
     direction -0.34202 -0.939693 0   
     length 6.95589   
     axis 0 0 -20   XYZ
    dof rx ry rz
    limits (-160.0 20.0)
           (-70.0 70.0)
           (-70.0 60.0)
  end
  begin
     id 8 
     name rtibia
     direction -0.34202 -0.939693 0   
     length 7.32327   
     axis 0 0 -20   XYZ
    dof rx
    limits (-10.0 170.0)
 end
 begin
     id 9 
     name rfoot
     direction -0.0660461 -0.18146 0.981178   
     length 1.85272  
     axis -90 -7.62852e-016 -20   XYZ
    dof rx rz
    limits (-45.0 90.0)
           (-20.0 70.0)
  end
  begin
     id 10 
     name rtoes
     direction -1.53586e-011 -4.21988e-011 1   
     length 0.93746   
     axis -90 -7.62852e-016 -20   XYZ
    dof rx
    limits (-90.0 20.0)
  end
  begin
     id 11 
     name lowerback
     direction -0.0107982 0.991059 0.13299   
     length 1.98691   
     axis 0 0 0   XYZ
    dof rx ry rz
    limits (-20.0 45.0)
           (-30.0 30.0)
           (-30.0 30.0)
  end
  begin
     id 12 
     name upperback
     direction 0.0076296 0.999916 0.0104576   
     length 1.99501   
     axis 0 0 0   XYZ
    dof rx ry rz
    limits (-20.0 45.0)
           (-30.0 30.0)
           (-30.0 30.0)
  end
  begin
     id 13 
     name thorax
     direction 0.01176 0.998615 -0.0512909   
     length 2.03144   
     axis 0 0 0   XYZ
    dof rx ry rz
    limits (-20.0 45.0)
           (-30.0 30.0)
           (-30.0 30.0)
  end
  begin
     id 14 
     name lowerneck
     direction -0.0171909 0.999644 0.0204011   
     length 1.71818   
     axis 0 0 0   XYZ
    dof rx ry rz
    limits (-20.0 45.0)
           (-30.0 30.0)
           (-30.0 30.0)
  end
  begin
     id 15 
     name upperneck
     direction 0.0250902 0.997482 -0.0663316   
     length 1.66199   
     axis 0 0 0   XYZ
    dof rx ry rz
    limits (-20.0 45.0)
           (-30.0 30.0)
           (-30.0 30.0)
  end
  begin
     id 16
     name head
     direction 0.00881535 0.99956 -0.0283365  
     length 1.81545  
     axis 0 0 0   XYZ
    dof rx ry rz
    limits (-20.0 45.0)
           (-30.0 30.0)
           (-30.0 30.0)
  end
  begin
     id 17 
     name lclavicle
     direction 0.840411 0.486876 -0.238035  
     length 3.30409  
     axis 0 0 0   XYZ
    dof ry rz
    limits (-20.0 10.0)
           (0.0 20.0)
  end
  begin
     id 18 
     name lhumerus
     direction 1 -4.48977e-011 -5.16239e-027   
     length 4.62672   
     axis 180 -30 -90   XYZ
    dof rx ry rz
    limits (-60.0 90.0)
           (-90.0 90.0)
           (-90.0 90.0)
  end
  begin
     id 19
     name lradius
     direction 1 -4.48977e-011 -8.71171e-027   
     length 3.11018   
     axis 180 -30 -90   XYZ
    dof rx
    limits (-10.0 170.0)
  end
  begin
     id 20
     name lwrist
     direction 1 -4.48912e-011 -1.03764e-026   
     length 1.55509   
     axis 9.09556e-015 90 90   XYZ
    dof ry
    limits (-180.0 0.0)
 end
  begin
     id 21 
     name lhand
     direction 1 -4.49072e-011 -2.07528e-026   
     length 0.743834   
     axis 1.3242e-014 90 90   XYZ
    dof rx rz
    limits (-90.0 90.0)
           (-45.0 45.0)
  end
  begin
     id 22 
     name lfingers
     direction 1 -4.48909e-011 -4.15056e-026   
     length 0.599698   
     axis 2.64841e-014 90 90   XYZ
    dof rx
    limits (0.0 90.0)
  end
  begin
     id 23
     name lthumb
     direction 0.707107 -6.35013e-011 0.707107   
     length 0.86105   
     axis -90 45 2.85299e-015   XYZ
    dof rx rz
    limits (-45.0 45.0)
           (-45.0 45.0)
  end
  begin
     id 24 
     name rclavicle
     direction -0.835208 0.500237 -0.228452   
     length 3.2716  
     axis 0 0 0   XYZ 
    dof ry rz
    limits (-10.0 20.0)
           (-20.0 0.0)
  end
  begin
     id 25 
     name rhumerus
     direction -1 -4.48978e-011 -5.1953e-028  
     length 4.55919   
     axis 180 30 90   XYZ
    dof rx ry rz
    limits (-90.0 60.0)
           (-90.0 90.0)
           (-90.0 90.0)
  end
  begin
     id 26 
     name rradius
     direction -1 -4.48961e-011 -5.99546e-027   
     length 3.22748   
     axis 180 30 90   XYZ
    dof rx
    limits (-10.0 170.0)
  end
  begin
     id 27 
     name rwrist
     direction -1 -4.48986e-011 -1.03764e-026   
     length 1.61374   
     axis 9.09556e-015 -90 -90   XYZ
    dof ry
    limits (-180.0 0.0)
  end
  begin
     id 28
     name rhand
     direction -1 -4.4899e-011 -2.07528e-026   
     length 0.700882   
     axis 1.3242e-014 -90 -90   XYZ
    dof rx rz
    limits (-90.0 90.0)
           (-45.0 45.0)
  end
  begin
     id 29
     name rfingers
     direction -1 -4.48991e-011 -4.15056e-026   
     length 0.565069   
     axis 2.64841e-014 -90 -90   XYZ
    dof rx
    limits (0.0 90.0)
  end
  begin
     id 30
     name rthumb
     direction -0.707107 -6.34804e-011 0.707107   
     length 0.811329   
     axis -90 -45 -2.85299e-015   XYZ
    dof rx rz
    limits (-45.0 45.0)
           (-45.0 45.0)
  end
:hierarchy
  begin
    root lhipjoint rhipjoint lowerback
    lhipjoint lfemur
    lfemur ltibia
    ltibia lfoot
    lfoot ltoes
    rhipjoint rfemur
    rfemur rtibia
    rtibia rfoot
    rfoot rtoes
    lowerback upperback
    upperback thorax
    thorax lowerneck lclavicle rclavicle
    lowerneck upperneck
    upperneck head
    lclavicle lhumerus
    lhumerus lradius
    lradius lwrist
    lwrist lhand lthumb
    lhand lfingers
    rclavicle rhumerus
    rhumerus rradius
    rradius rwrist
    rwrist rhand rthumb
    rhand rfingers
  end

#!OML:ASF F:\VICON\USERDATA\INSTALL\SteveWalk\SteveWalk.ASF
:FULLY-SPECIFIED
:DEGREES
176
root 0.585555 16.2664 -6.90225 16.121 -3.61807 5.95087
lowerback -14.1604 0.358216 -7.86969
upperback -5.70911 1.59557 -3.10268
thorax 1.75431 0.859262 1.41898
lowerneck -7.57574 -0.478237 -0.822426
upperneck 7.38676 -0.861176 3.51784
head 3.78633 -0.291138 1.26758
rclavicle 8.44835e-015 -1.63003e-014
rhumerus -40.0924 -0.668632 -88.0721
rradius 44.4563
rwrist -14.7945
rhand -16.3702 -35.9783
rfingers 7.12502
rthumb 9.843 -65.7282
lclavicle 8.44835e-015 -1.63003e-014
lhumerus -60.6622 36.7249 43.5214
lradius 13.123
lwrist -33.7946
lhand -15.5664 -14.4278
lfingers 7.12502
lthumb 10.6184 15.2839
rfemur -24.5868 -5.26588 12.253
rtibia 73.3221
rfoot 8.34276 9.5639
rtoes -12.7148
lfemur -39.3237 -0.700699 -30.0131
ltibia 35.6219
lfoot -12.7069 -4.26215
ltoes -10.2386
177
root 0.598061 16.2986 -6.70707 16.1406 -3.44956 5.48499
lowerback -14.1622 0.309602 -7.15245
upperback -5.71766 1.43287 -2.96222
thorax 1.78071 0.770508 1.14322
lowerneck -7.44469 -0.369096 -0.688876
upperneck 7.37818 -0.703479 3.22915
head 3.74911 -0.223376 1.15504
rclavicle 2.50717e-014 -1.43125e-014
rhumerus -40.3576 -1.59212 -87.9123
rradius 42.435
rwrist -14.2685
rhand -15.9322 -35.9458
rfingers 7.12502
rthumb 10.2656 -65.6752
lclavicle 2.50717e-014 -1.43125e-014
lhumerus -58.8133 36.1138 45.9248
lradius 13.438
lwrist -32.2761
lhand -15.4867 -14.8118
lfingers 7.12502
lthumb 10.6953 14.896
rfemur -26.4064 -5.29766 12.9145
rtibia 74.5859
rfoot 6.90536 8.71515
rtoes -11.8046
lfemur -38.3767 -0.565183 -29.6238
ltibia 35.3807
lfoot -13.276 -4.21778
ltoes -9.29661
178
root 0.611616 16.3326 -6.51209 16.2473 -3.31489 5.19241
lowerback -14.2932 0.227857 -6.62904
upperback -5.72841 1.26404 -2.84052
thorax 1.86492 0.679215 0.955455
lowerneck -7.29862 -0.269174 -0.651612
upperneck 7.4439 -0.553751 2.99008
head 3.73742 -0.159516 1.07667
rclavicle 1.50082e-014 1.51076e-014
rhumerus -40.6575 -2.42673 -87.6201
rradius 40.4975
rwrist -13.6458
rhand -15.4568 -36.4334
rfingers 7.12502
rthumb 10.7242 -66.1397
lclavicle 1.50082e-014 1.51076e-014
lhumerus -57.2025 35.9499 47.6447
lradius 13.6017
lwrist -31.7067
lhand -15.6592 -15.3282
lfingers 7.12502
lthumb 10.5289 14.388
rfemur -28.3005 -5.33632 13.3478
rtibia 75.5462
rfoot 6.25104 7.98837
rtoes -8.3497
lfemur -37.5231 -0.5173 -29.3935
ltibia 35.1303
lfoot -13.8103 -4.11999
ltoes -8.80537
179
root 0.624549 16.3662 -6.31055 16.3244 -3.18572 4.92647
lowerback -14.5581 0.144871 -6.19488
upperback -5.66873 1.11782 -2.66557
thorax 2.08766 0.596316 0.877644
lowerneck -7.22993 -0.174534 -0.719713
upperneck 7.46243 -0.398996 2.75563
head 3.72554 -0.0957671 1.01893
rclavicle -6.00081e-015 9.54166e-015
rhumerus -40.8954 -3.09156 -87.2476
rradius 38.4833
rwrist -13.0885
rhand -15.0677 -37.576
rfingers 7.12502
rthumb 11.0995 -67.2624
lclavicle -6.00081e-015 9.54166e-015
lhumerus -55.4265 35.7219 49.611
lradius 13.7321
lwrist -31.2158
lhand -15.944 -16.0952
lfingers 7.12502
lthumb 10.2542 13.6349
rfemur -30.0934 -5.39713 13.7722
rtibia 76.1923
rfoot 5.29708 7.28036
rtoes -4.50939
lfemur -36.6005 -0.660058 -29.1279
ltibia 34.9212
lfoot -14.5394 -3.73115
ltoes -10.2831
180
root 0.633491 16.3937 -6.11183 16.3938 -3.01786 4.35228
lowerback -14.6372 0.114656 -5.49893
upperback -5.69255 0.980053 -2.42206
thorax 2.12567 0.522229 0.722299
lowerneck -7.12894 -0.0321851 -0.716616
upperneck 7.43207 -0.192524 2.5837
head 3.68954 -0.00196393 0.971515
rclavicle -1.35671e-014 2.38542e-014
rhumerus -41.4059 -4.09659 -86.7584
rradius 36.6531
rwrist -12.0544
rhand -14.5834 -37.8547
rfingers 7.12502
rthumb 11.5665 -67.5155
lclavicle -1.35671e-014 2.38542e-014
lhumerus -53.2199 34.5583 52.5125
lradius 14.0798
lwrist -29.6494
lhand -16.1692 -15.9552
lfingers 7.12502
lthumb 10.0369 13.7855
rfemur -31.7619 -5.34294 14.6235
rtibia 76.5684
rfoot 3.74123 6.84662
rtoes -4.44347
lfemur -35.6985 -0.756586 -28.4905
ltibia 34.7154
lfoot -15.2883 -3.33885
ltoes -10.3673
181
root 0.631429 16.408 -5.93029 16.3825 -2.95079 4.0163
lowerback -14.4522 0.0585862 -5.24395
upperback -5.77939 0.845387 -2.18177
thorax 1.94375 0.460041 0.807468
lowerneck -7.08981 0.0710212 -0.575779
upperneck 7.66165 -0.0419164 2.22667
head 3.75741 0.0618896 0.837484
rclavicle 4.73356e-015 -1.59028e-014
rhumerus -42.0004 -5.3141 -85.9438
rradius 34.8361
rwrist -10.7534
rhand -13.974 -37.3873
rfingers 7.12502
rthumb 12.1542 -67.0142
lclavicle 4.73356e-015 -1.59028e-014
lhumerus -50.9093 32.8464 55.8264
lradius 14.5607
lwrist -27.489
lhand -16.1757 -15.3362
lfingers 7.12502
lthumb 10.0306 14.4047
rfemur -33.3935 -5.18874 15.258
rtibia 76.7959
rfoot 1.9945 6.49521
rtoes -7.76112
lfemur -34.8786 -0.598207 -28.1416
ltibia 34.5511
lfoot -15.7476 -3.46962
ltoes -6.80149
182
root 0.6349 16.4233 -5.74626 16.3125 -2.79694 3.97577
lowerback -14.4141 -0.0797607 -5.24292
upperback -5.7762 0.654538 -2.00061
thorax 1.93407 0.367064 0.966406
lowerneck -6.59122 0.122628 -0.527703
upperneck 7.49476 0.0480646 1.96582
head 3.59796 0.0930716 0.743338
rclavicle 5.8393e-016 2.38542e-015
rhumerus -42.5125 -6.23789 -85.1469
rradius 33.0275
rwrist -9.91326
rhand -13.9127 -37.0249
rfingers 7.12502
rthumb 12.2133 -66.6483
lclavicle 5.8393e-016 2.38542e-015
lhumerus -48.7769 31.1899 58.87
lradius 15.1397
lwrist -25.4571
lhand -16.393 -14.9851
lfingers 7.12502
lthumb 9.82099 14.7659
rfemur -34.8802 -5.16686 15.5329
rtibia 76.8166
rfoot 0.161772 6.02331
rtoes -10.7723
lfemur -34.0003 -0.429015 -28.1649
ltibia 34.4415
lfoot -16.3734 -3.68059
ltoes -8.18948
183
root 0.642619 16.4355 -5.55909 16.1424 -2.4824 3.64711
lowerback -14.3054 -0.203202 -4.86138
upperback -5.67367 0.429877 -1.73098
thorax 1.9994 0.250844 0.999234
lowerneck -6.31617 0.19018 -0.620181
upperneck 7.39716 0.169825 1.72142
head 3.5077 0.138705 0.683101
rclavicle -8.63471e-015 7.55382e-015
rhumerus -42.8854 -7.29444 -84.1974
rradius 31.0323
rwrist -8.76416
rhand -13.993 -36.6242
rfingers 7.12502
rthumb 12.1358 -66.2522
lclavicle -8.63471e-015 7.55382e-015
lhumerus -46.6357 29.502 61.7504
lradius 15.6356
lwrist -23.4161
lhand -16.4702 -15.266
lfingers 7.12502
lthumb 9.7465 14.4884
rfemur -36.0629 -5.12938 16.1317
rtibia 76.5847
rfoot -1.408 5.44261
rtoes -10.7834
lfemur -32.9738 -0.374774 -27.8075
ltibia 34.3055
lfoot -17.0718 -3.82041
ltoes -9.29706
184
root 0.647176 16.4438 -5.37132 15.9925 -2.24252 3.27684
lowerback -14.0983 -0.240071 -4.46669
upperback -5.65987 0.310066 -1.50935
thorax 1.91265 0.190533 0.990056
lowerneck -6.23062 0.195192 -0.63715
upperneck 7.55109 0.193945 1.51237
head 3.54392 0.141425 0.618999
rclavicle 7.56624e-015 -5.36719e-015
rhumerus -43.3914 -8.71694 -83.0089
rradius 28.8603
rwrist -7.47372
rhand -14.1655 -35.5133
rfingers 7.12502
rthumb 11.9695 -65.1511
lclavicle 7.56624e-015 -5.36719e-015
lhumerus -44.7454 27.6621 64.2649
lradius 16.1625
lwrist -21.4722
lhand -16.5325 -15.8885
lfingers 7.12502
lthumb 9.68639 13.8688
rfemur -37.2667 -5.01335 16.801
rtibia 76.1326
rfoot -2.8015 4.86088
rtoes -10.402
lfemur -32.0293 -0.0941755 -27.4521
ltibia 34.2006
lfoot -17.8329 -4.08709
ltoes -8.6043
185
root 0.650464 16.4555 -5.18079 15.9619 -2.10657 3.32457
lowerback -14.0027 -0.321453 -4.5499
upperback -5.6784 0.204011 -1.40344
thorax 1.84576 0.141377 1.13099
lowerneck -6.3285 0.213815 -0.495822
upperneck 7.8021 0.230731 1.19203
head 3.64992 0.150945 0.492153
rclavicle -7.52276e-015 3.37934e-015
rhumerus -44.0891 -10.405 -81.5686
rradius 26.8555
rwrist -5.79811
rhand -14.4463 -33.8287
rfingers 7.12502
rthumb 11.6988 -63.482
lclavicle -7.52276e-015 3.37934e-015
lhumerus -43.0954 26.0288 66.3901
lradius 16.7781
lwrist -19.979
lhand -16.4421 -16.6688
lfingers 7.12502
lthumb 9.77367 13.0844
rfemur -38.6188 -4.9974 16.9694
rtibia 75.497
rfoot -4.19489 4.49101
rtoes -11.3562
lfemur -31.2831 -0.0330845 -27.4692
ltibia 34.1528
lfoot -18.1584 -4.9788
ltoes -3.9455
